<svg xmlns="http://www.w3.org/2000/svg" xmlns:xlink="http://www.w3.org/1999/xlink" width="468.46" height="474.297" viewBox="0 0 468.46 474.297">
  <defs>
    <clipPath id="clip-path">
      <rect id="Rectangle_29" data-name="Rectangle 29" width="468.46" height="474.297" fill="none"/>
    </clipPath>
  </defs>
  <g id="Group_29" data-name="Group 29" clip-path="url(#clip-path)">
    <path id="Path_29" data-name="Path 29" d="M363.788,46.175a230.057,230.057,0,0,1,98.944,189.212c0,127.23-103.136,230.366-230.366,230.366S2,362.617,2,235.387,105.136,5.021,232.366,5.021a229.575,229.575,0,0,1,78.212,13.641" transform="translate(1.864 4.68)" fill="none" stroke="#221f20" stroke-miterlimit="10" stroke-width="4"/>
    <path id="Path_30" data-name="Path 30" d="M221,32.147A30.148,30.148,0,1,1,190.849,2,30.147,30.147,0,0,1,221,32.147Z" transform="translate(149.791 1.864)" fill="none" stroke="#221f20" stroke-miterlimit="10" stroke-width="4"/>
    <path id="Path_31" data-name="Path 31" d="M142.488,334.987a149.013,149.013,0,1,0-34.334-17.775" transform="translate(41.237 43.148)" fill="none" stroke="#221f20" stroke-miterlimit="10" stroke-width="4"/>
    <circle id="Ellipse_8" data-name="Ellipse 8" cx="19.466" cy="19.466" r="19.466" transform="translate(146.059 351.762)" fill="none" stroke="#221f20" stroke-miterlimit="10" stroke-width="4"/>
  </g>
</svg>
